# xmcd
#
# Track frame offsets: 
#        150
#        10048
#        26896
#        38032
#        47482
#        72789
#        87785
#        103057
#        119377
#        135492
#        150018
#
# Disc length: 2154 seconds
#
# Revision: 0
# Processed by: cddbd v1.5.2PL0 Copyright (c) Steve Scherf et al.
# Submitted via: ExactAudioCopy v1.0b1
#
DISCID=7a08680b
DTITLE=Bethlehem Bluegrass Band - Bethlehem Bluegrass
DYEAR=2010
DGENRE=Bluegrass
TTITLE0=Just A Little Talk With Jesus
TTITLE1=Forever
TTITLE2=He Said If I Be Lifted Up
TTITLE3=Fireball
TTITLE4=I Know Who Holds Tomorrow
TTITLE5=Leaning On The Everlasting Arms
TTITLE6=Seven Sundays In A Row
TTITLE7=By The Side Of The Road
TTITLE8=Go And Do The Same
TTITLE9=When The Roll Is Called Up Yonder
TTITLE10=Peace In The Valley
EXTD=
EXTT0=
EXTT1=
EXTT2=
EXTT3=
EXTT4=
EXTT5=
EXTT6=
EXTT7=
EXTT8=
EXTT9=
EXTT10=
PLAYORDER=
